<?xml version="1.0" encoding="UTF-8"?>
<svg xmlns="http://www.w3.org/2000/svg" viewBox="0 0 48 48">
  <defs>
    <style>
      .cls-1 {
        fill: #d1a651;
      }

      .cls-2 {
        fill: #c99546;
      }

      .cls-3 {
        fill: #b38120;
      }

      .cls-4 {
        fill: #dbc08a;
      }

      .cls-5 {
        fill: #fff;
      }

      .cls-6 {
        fill: #b88e3b;
      }

      .cls-7 {
        fill: #fff1d6;
      }

      .cls-8 {
        fill: #a87242;
      }

      .cls-9 {
        fill: #5c4530;
      }

      .cls-10 {
        fill: #e8cb93;
      }

      .cls-11 {
        fill: #d4a64c;
      }

      .cls-12 {
        fill: #c99769;
      }
    </style>
  </defs>
  <path class="cls-8" d="M12.295,38.393s-.279-.149-.216-.482.712-.489,1.004-.17.307.98.307.98c0,0,.168-.431-.106-.855-.274-.425-.829-.768-1.186-.466s-.209.917.197.992Z"/>
  <path class="cls-8" d="M11.427,36.335s-.331-.541-.164-.856,1.016-.476,1.565.259c.548.734.412,1.648.412,1.648,0,0,.408-1.038-.38-1.873-.788-.835-1.387-.531-1.666-.205-.279.327.233,1.027.233,1.027h0Z"/>
  <path class="cls-8" d="M10.743,33.496s-.198-.703.168-.966c.366-.261,1.586-.426,1.923,1.212.337,1.638.319,1.858.319,1.858l.144-.829s-.314-2.076-1.028-2.424c-.713-.348-1.416-.237-1.639.207-.222.443.112.941.112.941h0Z"/>
  <path class="cls-8" d="M15.61,37.839s1.2-1.199,2.012-1.034c.813.165.867,1.755-.013,2.024,0,0,.697-.138.787-1.128.09-.989-.402-1.015-.668-1.11-.266-.094-1.636.395-2.118,1.247h0Z"/>
  <path class="cls-8" d="M17.758,36.181s1.325-.796,2.231-.595c.907.2,1.032,1.311.382,1.467,0,0,.671-.004.578-.573-.095-.569-.356-1.3-1.448-1.138s-1.923.81-1.923.81l.178.029h0Z"/>
  <path class="cls-8" d="M19.066,35.26s1.78-1.165,3.569-.629c0,0-.884-.581-2.314-.164-1.431.417-1.605.762-1.605.762l.351.031h0Z"/>
  <path class="cls-12" d="M45.119,0c-.056.398-.447.993-.447.993l.229-.633c-.165.425-1.045,1.522-2.881,2.928-1.836,1.405-5.916,3.159-7.264,4.215s-3.197,3.043-3.197,3.043c.041.645-.228,1.904-.228,1.904.047-.435-.016-1.652-.016-1.652,0,0-1.446.965-3.801,3.227s-5.407,5.27-5.407,5.27c-.009,2.968-.59,4.994-.59,4.994.122-.761.291-4.653.291-4.653,0,0-2.497,1.988-3.36,3.159-.862,1.171-1.916,2.656-2.314,3.061-.398.404-1.529,1.255-1.529,1.255l-.239.905-.113-.628s-.361,1.511-.397,2.945.094,5.138.094,5.138c0,0-.387-2.872-.533-3.954-.146-1.082-.26-2.98-.26-2.98,0,0-.15,2.385.101,3.904.044.271.082.629.112,1.034-.225-.502-.611-1.052-1.275-1.389-1.467-.744-2.188,1.134-1.172,1.784,0,0-1.065-1.786.841-1.618,1.315.116,1.412,3.126,1.412,3.126,0,0-.838-.982-1.616-.651-.778.332-.638,1.511-.024,1.681,0,0-.678-.674-.195-1.166.482-.492,2.078.077,1.939,1.989,0,0-.922-.5-1.35.095-.429.595.147,1.438.668,1.11,0,0-.702.053-.584-.64.119-.693,1.515-.365,1.346.715-.028.178-.041.328-.041.454-.381,1.703.226,1.658,1.694-.362,1.654-2.276,3.27-2.464,3.279-.877.01,1.586-1.748,1.057-1.748,1.057.308.33,2.021.669,2.249-1.12.228-1.787-1.111-1.523-1.111-1.523,3.05-1.949,3.682.673,2.789.888s-.491-.373-.491-.373c-.582.198.055.94.645.538.589-.402.535-1.342-.001-1.906s-1.823-.081-1.823-.081c2.175-1.304,3.838-.579,3.838-.579-.584-.524-1.854-.448-1.854-.448.927-.31,2.342.1,2.342.1,0,0,.444-.772.975-1.535.531-.763,1.83-2.261,1.83-2.261-.417-.303-2.072-.049-2.072-.049.615-.177,2.372-.369,2.372-.369,0,0,1.179-1.641,3.347-4.042s3.905-4.58,3.905-4.58c0,0-.574-.006-1.758.423-1.184.43-2.555.442-2.555.442,0,0,1.378-.101,2.285-.493s2.279-.636,2.279-.636c0,0,1.233-1.655,2.621-3.491,1.389-1.836,2.732-3.864,2.732-3.864-.323-.037-3.693,1.063-3.693,1.063,0,0,.731-.292,1.265-.45.534-.157,2.503-.777,2.503-.777l1.092-1.765-4.409,1.063,4.497-1.17s.612-.783,1.41-1.986,1.734-3.133,1.734-3.133c-.594.028-2.617.776-2.617.776.65-.388,2.721-1.06,2.721-1.06.165-.386.518-1.771.518-1.771l-.838.087,1.014-.264c1.141-2.547.838-4.438.838-4.438h-.005Z"/>
  <path class="cls-6" d="M35.841,12.962l4.497-1.17s.612-.783,1.41-1.986,1.734-3.133,1.734-3.133c-.594.028-2.617.776-2.617.776.65-.388,2.721-1.06,2.721-1.06.165-.386.518-1.771.518-1.771l-.838.087,1.014-.264C45.422,1.892,45.118.002,45.118.002c-.056.398-.447.993-.447.993l.229-.633c-.165.425-1.045,1.522-2.881,2.928-1.836,1.405-5.916,3.159-7.264,4.215-.413.324-.874.735-1.313,1.15.161.834.349,2.027.262,2.723-.143,1.151-.486,2.736-.486,2.736l-.547,1.056s.692-1.245,2.325-1.754c1.166-.364,3.78-1.037,5.176-1.391l.078-.126-4.409,1.063h-.001Z"/>
  <path class="cls-1" d="M32.673,15.169l.547-1.056s.343-1.585.486-2.736c.086-.696-.101-1.889-.262-2.723-.995.938-1.884,1.892-1.884,1.892.041.645-.228,1.904-.228,1.904.047-.435-.016-1.652-.016-1.652,0,0-1.446.965-3.801,3.227-2.355,2.262-5.407,5.27-5.407,5.27-.009,2.968-.59,4.994-.59,4.994.122-.761.291-4.653.291-4.653,0,0-2.497,1.988-3.36,3.159-.862,1.171-1.916,2.656-2.314,3.061-.398.404-1.529,1.255-1.529,1.255l-.239.905-.113-.628s-.361,1.511-.397,2.945.094,5.138.094,5.138c0,0-.387-2.872-.533-3.954-.146-1.082-.26-2.98-.26-2.98,0,0-.15,2.385.101,3.904.044.271.082.629.112,1.034-.225-.502-.611-1.052-1.275-1.389-1.467-.744-2.188,1.134-1.172,1.784,0,0-1.065-1.786.841-1.618,1.315.116,1.412,3.126,1.412,3.126,0,0-.838-.982-1.616-.651-.778.332-.638,1.511-.024,1.681,0,0-.678-.674-.195-1.166.482-.492,2.078.077,1.939,1.989,0,0-.922-.5-1.35.095-.429.595.147,1.438.668,1.11,0,0-.702.053-.584-.64.119-.693,1.515-.365,1.346.715-.028.178-.041.328-.041.454-.381,1.703.226,1.658,1.694-.362,1.654-2.276,3.27-2.464,3.279-.877.01,1.586-1.748,1.057-1.748,1.057.308.33,2.021.669,2.249-1.12.228-1.787-1.111-1.523-1.111-1.523,3.05-1.949,3.682.673,2.789.888s-.491-.373-.491-.373c-.582.198.055.94.645.538.589-.402.535-1.342-.001-1.906s-1.823-.081-1.823-.081c2.175-1.304,3.838-.579,3.838-.579-.584-.524-1.854-.448-1.854-.448.927-.31,2.342.1,2.342.1,0,0,.444-.772.975-1.535.531-.763,1.83-2.261,1.83-2.261-.417-.303-2.072-.049-2.072-.049.615-.177,2.372-.369,2.372-.369,0,0,1.179-1.641,3.347-4.042,2.169-2.4,3.905-4.58,3.905-4.58,0,0-.574-.006-1.758.423-1.184.43-2.555.442-2.555.442,0,0,1.378-.101,2.285-.493s2.279-.636,2.279-.636c0,0,1.233-1.655,2.621-3.491,1.389-1.836,2.732-3.864,2.732-3.864-.323-.037-3.693,1.063-3.693,1.063,0,0,.731-.292,1.265-.45.534-.157,2.503-.777,2.503-.777l1.014-1.64c-1.396.354-4.008,1.027-5.176,1.391-1.632.509-2.325,1.754-2.325,1.754h-.004Z"/>
  <path class="cls-8" d="M14.339,39.633s1.449-2.776,2.952-3.426c1.503-.651,2.107-.754,2.107-.754,0,0-1.415.067-2.377.587l-.962.521s.992-1.106,2.266-1.759c1.273-.654,2.084-.849,2.084-.849,0,0-1.595.268-2.056.495-.46.227-.145-.6,1.024-1.922,1.17-1.321,15.733-19.735,22.3-26.922,0,0-6.497,6.764-12.277,13.415-5.78,6.65-12.178,14.777-13.745,17.061-1.567,2.284-1.319,3.553-1.319,3.553h0Z"/>
  <path class="cls-8" d="M13.268,39.343s.316-1.896.132-2.775c-.183-.88-.888-1.663-1.11-1.754,0,0,.977.256,1.327,1.587,0,0,.145-2.605-.981-3.836,0,0,.899.765,1.057,2.489.158,1.724.106,2.343.045,2.56-.063.217.501-.294,1.203-1.3s4.109-5.871,5.537-7.775c1.43-1.904,9.144-11.099,12.058-14.085,2.915-2.984,9.755-9.514,9.755-9.514,0,0-11.954,12.499-17.302,19.161-5.348,6.661-11.722,15.245-11.722,15.245l.002-.002Z"/>
  <path class="cls-8" d="M13.938,29.813s-.1,2.989-.021,4.743c.079,1.752-.195,3.147-.273,3.377-.077.231.33-.214.33-.214,0,0,.166-2.081.061-4.656-.106-2.574-.096-3.251-.096-3.251h0Z"/>
  <path class="cls-8" d="M11.808,34.828s-.438-.039-.655.606c-.142.421.274.901.274.901,0,0-.468-.393-.359-.896.163-.748.739-.612.739-.612Z"/>
  <path class="cls-4" d="M21.428,28.913c2.539-3.24,6.363-7.916,8.54-10.521,2.177-2.604,4.23-5.005,8.362-9.237.952-.975,1.714-1.746,2.321-2.355,1.095-1.24,1.696-1.992,1.696-1.992,0,0-1.236,1.28-2.595,2.532-1.358,1.252-9.891,9.778-16.669,18.228-7.343,9.155-11.448,16.33-12.071,17.12-.395.5-.615,1.246-.949,2.712-.225.99-.326,1.844-.318,2.283.765-1.49,3.154-6.098,4.863-8.953,2.061-3.443,4.281-6.578,6.82-9.818Z"/>
  <path class="cls-11" d="M18.232,32.514c-2.761,3.629-6.847,10.816-8.269,13.358-.244,1.238-.277,2.162-.133,2.127,0,0,4.583-9.481,8.573-14.775s13.437-17.392,17.458-21.365c4.022-3.973,6.485-7.051,6.485-7.051-.911.97-7.406,7.503-10.881,11.49-3.475,3.985-9.843,11.76-13.233,16.216h-.001Z"/>
  <path class="cls-10" d="M23.084,25.569c-7.343,9.155-11.448,16.33-12.071,17.12-.395.5-.615,1.246-.949,2.712-.037.161-.07.318-.1.471,1.421-2.542,5.508-9.729,8.269-13.358,3.391-4.457,9.758-12.23,13.233-16.216,3.475-3.985,9.971-10.519,10.881-11.49,0,0-1.236,1.28-2.595,2.532-1.358,1.252-9.891,9.778-16.669,18.228h.001Z"/>
  <path class="cls-5" d="M9.818,47.999h.012s.026-.052.073-.149c-.028.054-.056.105-.085.15h0Z"/>
  <path class="cls-8" d="M21.502,31.004s1.855-.851,4.53-1.034c0,0-2.403-.115-4.53,1.034Z"/>
  <path class="cls-8" d="M23.09,27.733s2.282-1.099,4.384-1.403c0,0-2.236.221-3.942.979l-.442.424Z"/>
  <path class="cls-8" d="M23.763,26.964s1.307-.633,2.47-.797c0,0-2.161.174-2.47.797Z"/>
  <path class="cls-8" d="M14.24,27.584s.038,1.82.117,2.937c.078,1.117.085,3.677.085,3.677,0,0,.035-2.782.011-3.757-.026-.976-.211-2.856-.211-2.856h0Z"/>
  <path class="cls-8" d="M14.632,27.547s.136,2.625.078,3.332c-.059.708.036,1.416.036,1.416,0,0,.202-3.36-.114-4.748h0Z"/>
  <path class="cls-8" d="M17.278,28.315s.318,3.139-.466,5.427l.241-.347s.538-1.805.226-5.081h0Z"/>
  <path class="cls-8" d="M17.598,32.57s.139-1.757.157-2.83c0,0,.005,2.078-.035,2.627l-.122.203Z"/>
  <path class="cls-8" d="M26.428,17.598s.142,2.717-.63,4.653l.222-.288s.539-1.532.408-4.365h0Z"/>
  <path class="cls-8" d="M26.525,21.277s.194-1.507.254-2.43c0,0-.083,1.79-.14,2.261l-.114.169h0Z"/>
  <path class="cls-8" d="M22.115,20.009s-.558,6.056-1.742,8.681l.408-.445s1.119-3.967,1.335-8.236h0Z"/>
  <path class="cls-8" d="M20.055,22.327s-.516,4.212-.525,5.066-.14,1.795-.14,1.795c0,0,.325-1.797.479-3.77s.185-3.092.185-3.092h0Z"/>
  <path class="cls-8" d="M19.26,25.435s-.268,2.216-.242,2.976c0,0,.235-2.526.242-2.976Z"/>
  <path class="cls-8" d="M25.399,30.825c-.227.248-.63.634-1.202,1.426-.572.792-1.154,1.78-1.154,1.78,0,0-.221-.043-.706-.08-.301-.023-.736.06-1.025.128.855-.074,1.81.203,1.81.203,0,0,.444-.772.975-1.535.531-.763,1.83-2.261,1.83-2.261-.174-.127-.565-.156-.959-.147.058.017.332.095.46.133.144.042.197.107-.03.353h0Z"/>
  <path class="cls-8" d="M32.529,21.617c.144-.035.612-.07.612-.07,0,0-.472.576-.826,1.085s-.78.958-.78.958l-1.185.305,1.063-.18s-.249.233-.575.543c-.326.31-1.175,1.458-2.044,2.284-.87.826-2.26,2.817-2.427,3.069-.123.184-.36.396-.479.496.207-.025.342-.04.342-.04,0,0,1.179-1.641,3.347-4.042s3.905-4.58,3.905-4.58c0,0-.316-.004-.961.17-.008.004-.006.005.009.002h0Z"/>
  <path class="cls-8" d="M44.439,3.515c-.137.38-.326.754-.441.998l.282-.073C45.422,1.892,45.118.002,45.118.002c-.014.102-.051.218-.097.332,0,.417-.008.915-.042,1.222-.067.594-.333,1.39-.539,1.959h0Z"/>
  <path class="cls-8" d="M43.547,5.829c-.089.244-.16.492-.2.637.148-.05.239-.079.239-.079.165-.386.518-1.771.518-1.771l-.16.016c-.025.059-.042.104-.044.128-.01.118-.216.687-.353,1.067h0Z"/>
  <path class="cls-8" d="M38.855,13.988s-.431.586-.681.972c-.25.388-1.158,1.608-1.158,1.608l-.546.266.374-.109-.182.275-1.592.518,1.461-.352s-.939,1.247-1.439,1.868c-.446.556-1.474,1.928-1.685,2.212.199-.041.324-.064.324-.064,0,0,1.233-1.655,2.621-3.491,1.389-1.836,2.732-3.864,2.732-3.864-.08-.01-.349.051-.706.149-.033.016-.053.025-.053.025l.531-.013h0Z"/>
  <path class="cls-8" d="M42.351,7.754s.509-.181.391.04-.355.509-.355.509c0,0-.118.221-.226.247-.108.026-.772.282-.772.282l.838-.163s-.74,1.122-1.204,1.734c-.341.452-.704,1.118-.871,1.436l.184-.048s.612-.783,1.41-1.986c.797-1.203,1.734-3.133,1.734-3.133-.057.003-.126.011-.206.026-.067.188-.21.584-.271.686-.082.135-.655.369-.655.369h.002Z"/>
  <path class="cls-8" d="M39.338,13.063c-.146.266-.336.582-.504.68-.028.017-.063.035-.099.055.253-.079.423-.133.423-.133l1.092-1.765-.146.035c-.028.055-.044.088-.044.088,0,0-.576.774-.722,1.04h0Z"/>
  <path class="cls-2" d="M38.329,9.157c-4.131,4.23-6.185,6.632-8.362,9.237-2.177,2.604-6,7.281-8.54,10.521-2.539,3.241-4.759,6.375-6.82,9.818-1.708,2.855-4.098,7.464-4.863,8.953.003.211.033.328.086.314,0,0,4.741-9.461,8.73-14.755,3.99-5.294,13.279-17.411,17.301-21.384,2.034-2.009,3.669-3.789,4.789-5.059-.608.609-1.368,1.38-2.321,2.355h0Z"/>
  <path class="cls-7" d="M10.926,43.518c1.082-1.764,1.829-2.952,3.136-5.052.71-1.135,2.858-4.542,5.152-7.428,2.254-2.917,4.378-5.512,4.376-5.513,0,0,2.107-2.608,4.488-5.421,2.357-2.835,5.12-5.751,6.036-6.728,1.694-1.799,2.635-2.837,4.017-4.373-1.482,1.438-2.478,2.425-4.175,4.222-.916.974-3.686,3.896-6.044,6.736-2.382,2.817-4.489,5.427-4.49,5.426.002.002-2.123,2.596-4.381,5.517-2.301,2.892-4.455,6.311-5.164,7.447-1.305,2.105-1.989,3.335-2.952,5.169h0Z"/>
  <path class="cls-8" d="M29.332,18.093s.615-3.306.646-5.394c0,0-.04,5.055-.646,5.394Z"/>
  <path class="cls-8" d="M31.668,11.792l-.399,3.254s.401-2.292.399-3.254Z"/>
  <path class="cls-10" d="M15.322,29.959l-.152,3.276s.228-2.317.152-3.276Z"/>
  <path class="cls-8" d="M27.732,22.06s1.138-.581,1.994-.75c.875-.172,4.139-1.191,4.139-1.191,0,0-2.85.841-3.913,1.02-1.063.18-2.082.386-2.22.92h0Z"/>
  <path class="cls-8" d="M29.233,21.005s1.748-.344,2.497-.563c.749-.219,2.201-.685,2.201-.685l-4.698,1.248Z"/>
  <path class="cls-8" d="M33.512,16.277s1.49-.783,2.499-1.026c1.01-.243,2.3-.747,2.3-.747,0,0-2.419,1.045-4.8,1.773h0Z"/>
  <path class="cls-8" d="M35.586,11.271s.344-1.739.383-2.211c.039-.471.624-1.845.624-1.845,0,0-.736,2.488-.818,4.048l-.189.007h0Z"/>
  <path class="cls-8" d="M36.743,7.68s-.506,1.701-.501,2.354l.501-2.354Z"/>
  <path class="cls-8" d="M38.359,9.794s1.913-.769,2.544-.998,1.354-.712,1.354-.712c0,0-3.547,1.433-3.9,1.71h0Z"/>
  <path class="cls-8" d="M40.848,6.19s.394-1.058.667-1.508.754-1.145.754-1.145l-1.421,2.654h0Z"/>
  <path class="cls-8" d="M33.635,9.661s.225,1.409.01,2.578c-.214,1.168-.433,1.53-.433,1.53l-.372.359s.532-1.437.671-2.28c.141-.843.122-2.186.122-2.186h0Z"/>
  <path class="cls-10" d="M14.212,36.256s-.122-4.072-.131-4.936c-.008-.865.095-2.218.095-2.218,0,0,.135,3.289.168,4.495.033,1.205-.132,2.66-.132,2.66h0Z"/>
  <path class="cls-10" d="M14.878,29.163s-.177,4.491-.222,5.136c-.045.647-.152,1.626-.152,1.626,0,0,.511-2.867.374-6.762Z"/>
  <path class="cls-10" d="M12.795,32.987s.613,1.354.631,2.736c0,0,.363-.867-.631-2.736Z"/>
  <path class="cls-10" d="M16.734,36.63s.937-.745,1.609-.214c.672.531.184,1.949-.088,2.13,0,0,.603-1.012-.049-1.981-.401-.597-1.472.066-1.472.066h0Z"/>
  <path class="cls-10" d="M16.698,36.003s1.748-.941,2.862-.95c1.114-.008,1.353.627,1.437,1.214,0,0-.061-2.152-4.299-.264h0Z"/>
  <path class="cls-10" d="M18.358,35.055s1.773-.716,3.151-.702c0,0-1.315-.232-3.151.702Z"/>
  <path class="cls-10" d="M19.399,33.793s2.232-.711,3.799-.743c0,0-2.758.433-3.799.743Z"/>
  <path class="cls-10" d="M18.204,29.545s.044-3.621.344-5.34c0,0-.294,4.953-.344,5.34h0Z"/>
  <path class="cls-10" d="M17.607,26.83s-.133,2.891-.181,4.116c0,0,.275-2.897.181-4.116Z"/>
  <path class="cls-10" d="M21.833,30.116s2.929-.908,4.666-1.182c0,0-4.551,1.184-4.666,1.182Z"/>
  <path class="cls-10" d="M24.466,26.794s3.07-.798,4.38-.825c0,0-1.106-.196-4.38.825Z"/>
  <path class="cls-10" d="M25.632,26.052s1.798-.376,2.392-.404c0,0-1.106-.079-2.392.404Z"/>
  <path class="cls-3" d="M10.718,43.17c-.232.487-.414,1.17-.655,2.231-.325,1.429-.391,2.576-.244,2.598.029-.045.057-.095.085-.15.012-.026.026-.054.042-.087.473-1.015.85-3.311.911-4.056.038-.457-.032-.576-.139-.537h0Z"/>
  <path class="cls-9" d="M10.715,43.236c-.176.111-.591,2.179-.688,2.722-.098.544-.183,1.142-.188,1.36s.036.324.148.022c.113-.301.447-1.769.616-2.849.169-1.08.15-1.278.112-1.255h0Z"/>
  <path class="cls-10" d="M23.348,19.226s-.073,3.021-.421,5.377c0,0,.634-1.963.421-5.377Z"/>
  <path class="cls-10" d="M23.59,22.288s.168-2.467.071-3.984c0,0,.254,2.481-.071,3.984Z"/>
  <path class="cls-10" d="M27.345,19.188s.027-2.895-.027-4.23c0,0,.265,2.208.027,4.23Z"/>
  <path class="cls-10" d="M27.656,15.57s.178,1.69.027,2.805c0,0-.003-2.232-.027-2.805Z"/>
  <path class="cls-10" d="M31.429,18.242s3.709-1.395,4.953-1.772c0,0-2.849.687-4.953,1.772Z"/>
  <path class="cls-10" d="M32.668,17.212l2.842-1.031s-1.821.516-2.842,1.031Z"/>
  <path class="cls-10" d="M31.841,14.253s.333-2.892.328-3.391c0,0,.079,1.752-.328,3.391Z"/>
  <path class="cls-10" d="M32.319,12.751l.14-2.267s.026,1.534-.14,2.267Z"/>
  <path class="cls-10" d="M34.896,10.937l.371-3.055s-.102,1.796-.371,3.055Z"/>
  <path class="cls-10" d="M15.066,37.898s-3.118,4.795-3.778,6.648l3.778-6.648h0Z"/>
  <path class="cls-10" d="M18.219,33.249s4.995-6.827,7.514-9.667l-7.514,9.667Z"/>
  <path class="cls-12" d="M36.482,11.979l4.285-1.379s-3.021.766-4.285,1.379Z"/>
  <path class="cls-12" d="M38.144,11.117s1.698-.872,2.589-.97l-2.589.97Z"/>
  <path class="cls-12" d="M38.265,7.66l.318-1.848s-.044,1.243-.318,1.848Z"/>
  <path class="cls-12" d="M38.746,7.121l.278-1.223s-.051.898-.278,1.223Z"/>
  <path class="cls-8" d="M42.292,4.938s1.174-1.342,1.593-1.982c.418-.64.919-1.569.919-1.569,0,0-.679,2.012-2.512,3.552Z"/>
  <path class="cls-12" d="M41.2,6.067s1.504-1.518,2.178-2.836c.313-.612.439-1.03.439-1.03-.821,1.815-2.617,3.866-2.617,3.866h0Z"/>
  <path class="cls-8" d="M33.065,15.614s1.143-.718,4.291-1.747c0,0-2.989.816-4.291,1.593v.155s0,0,0,0Z"/>
  <path class="cls-8" d="M32.698,16.146s1.332-.725,2.216-1.093c0,0-1.791.72-2.315,1.001-.524.28.098.092.098.092h.001Z"/>
  <path class="cls-8" d="M28.362,23.488s2.358-.587,2.75-.701c.392-.113,1.1-.342,1.1-.342,0,0-1.403.666-3.851,1.043h0Z"/>
  <path class="cls-8" d="M24.375,17.708s.117,2.225-.039,3.321c0,0,.308-1.018.039-3.321h0Z"/>
  <path class="cls-8" d="M24.602,17.385s.084,1.616.044,2.397c0,0,.181-.834-.044-2.397h0Z"/>
  <path class="cls-8" d="M15.124,36.123s.997-1.8.829-6.179c0,0,.344,2.141-.386,5.523l-.443.656h0Z"/>
</svg>